<svg width="610" height="528" viewBox="0 0 610 528" fill="none" xmlns="http://www.w3.org/2000/svg">
    <path d="M304.55 181.01C309.52 165.276 314.462 149.757 320.129 134.469C330.205 107.289 341.975 80.9061 358.018 56.5937C368.928 40.0743 381.394 24.9077 397.942 13.5024C409.37 5.62829 421.877 0.58181 435.954 0.0947502C451.67 -0.446427 465.31 5.22241 477.708 14.2871C492.195 24.8807 503.377 38.5048 513.181 53.279C529.825 78.3355 541.908 105.584 552.19 133.684C565.707 170.674 575.579 208.651 583.498 247.156C588.523 271.577 592.687 296.132 596.128 320.824C598.886 340.577 601.153 360.384 603.023 380.245C605.74 409.13 607.597 438.056 608.73 467.05C609.481 486.492 609.632 505.947 609.987 525.389C610.028 527.554 609.386 528.014 607.297 528.014C583.566 527.946 559.822 527.946 536.092 528.014C533.948 528.027 533.211 527.648 533.238 525.294C533.457 506.935 533.102 488.589 532.678 470.229C532.023 442.494 530.958 414.786 529.32 387.091C528.255 368.948 527.039 350.805 525.497 332.703C523.585 310.217 521.291 287.771 518.533 265.367C514.655 233.829 509.904 202.428 503.5 171.296C497.26 140.99 489.901 110.996 477.967 82.2861C473.448 71.4084 468.219 60.8825 460.886 51.5202C458.197 48.0972 455.22 44.9719 451.684 42.4013C442.932 36.0695 433.538 35.9207 424.581 41.9819C416.935 47.1637 411.596 54.3884 406.913 62.1137C397.232 78.092 390.815 95.4503 385.217 113.12C377.024 139.015 371.194 165.479 366.238 192.145C362.21 213.833 358.933 235.629 356.161 257.506C354.072 273.944 352.338 290.41 350.782 306.902C348.474 331.404 346.713 355.933 345.416 380.502C344.269 402.122 343.504 423.756 343.081 445.416C342.808 459.541 342.603 473.666 342.685 487.791C342.699 489.766 342.18 490.334 340.145 490.334C316.415 490.266 292.671 490.266 268.94 490.334C266.865 490.334 266.374 489.712 266.387 487.763C266.496 470.08 266.251 452.411 265.773 434.728C265.076 409.536 264.011 384.358 262.414 359.207C261.008 337.181 259.314 315.182 257.048 293.237C252.474 248.847 246.357 204.673 236.663 161.055C230.655 134.063 223.541 107.397 212.509 81.9208C207.443 70.2449 201.613 58.9884 193.066 49.3284C190.868 46.839 188.437 44.5931 185.72 42.6448C175.889 35.5689 165.717 35.9207 156.46 43.6866C148.418 50.4378 143.065 59.1778 138.341 68.3237C128.975 86.4532 122.721 105.746 117.314 125.31C109.805 152.45 104.357 180.036 99.7281 207.785C95.4681 233.383 92.0546 259.089 89.201 284.876C87.0846 304.034 85.3642 323.218 83.835 342.444C81.35 373.643 79.6433 404.869 78.4963 436.135C77.8819 452.952 77.5815 469.783 77.2538 486.613C77.0081 499.548 76.9125 512.495 76.8715 525.443C76.8715 527.378 76.3117 527.824 74.4138 527.824C50.5059 527.757 26.598 527.757 2.6901 527.824C0.723946 527.824 0.300676 527.242 0.300676 525.389C0.259714 496.963 1.10625 468.552 2.62183 440.167C3.89164 416.274 5.72126 392.421 8.20626 368.623C14.7738 306.036 24.9049 244.071 41.9176 183.365C52.0625 147.173 64.4192 111.807 81.9508 78.3896C91.3856 60.409 102.24 43.3484 116.29 28.466C125.397 18.8195 135.597 10.5124 147.94 5.20888C168.079 -3.43643 187.427 -0.87937 205.969 9.86301C220.961 18.5489 232.635 30.8472 242.943 44.4849C260.366 67.5255 272.914 93.1638 283.673 119.749C291.442 138.961 297.969 158.592 303.717 178.494C303.99 179.319 304.277 180.172 304.55 181.01Z" fill="#FFF6A3" fill-opacity="0.7"/>
</svg>
